/* XPM */
static char * closeA_xpm[] = {
"24 48 53 1",
" 	c #A0B4FA",
".	c #B0A8E5",
"+	c #E06C75",
"@	c #C790BD",
"#	c #AEA9E8",
"$	c #C98EB9",
"%	c #CC8BB3",
"&	c #DF6D7A",
"*	c #A9ADEF",
"=	c #CF87AB",
"-	c #DC7080",
";	c #A7AFF2",
">	c #DD6F7B",
",	c #CA8CB7",
"'	c #B1A7E5",
")	c #C297C9",
"!	c #C594C3",
"~	c #DE6D78",
"{	c #ACACED",
"]	c #D183A6",
"^	c #DA778D",
"/	c #A3B2F7",
"(	c #A3B1F5",
"_	c #DB7588",
":	c #D57C98",
"<	c #B99FD7",
"[	c #BC9CD1",
"}	c #D57F9E",
"|	c #A1B4FA",
"1	c #D184A7",
"2	c #D87890",
"3	c #B7A2DC",
"4	c #C297C8",
"5	c #DF6C76",
"6	c #AEAAEA",
"7	c #D380A0",
"8	c #D77A93",
"9	c #A1B3F8",
"0	c #A8AEF1",
"a	c #DD6F7E",
"b	c #CA8CB5",
"c	c #B1A6E3",
"d	c #C099CC",
"e	c #CB8CB5",
"f	c #DF6E7A",
"g	c #ABACEE",
"h	c #D185A8",
"i	c #DC7183",
"j	c #A6B0F3",
"k	c #B0A8E7",
"l	c #C790BC",
"m	c #AFA9E8",
"n	c #C98FBB",
"                        ",
"                        ",
"                        ",
"                        ",
"                        ",
"                        ",
"                        ",
"       .+@   #+$        ",
"        %&*  =-;        ",
"        *>, '+)         ",
"         !~{]^/         ",
"         (_:+<          ",
"          [+}|          ",
"          <+1           ",
"         /^2+3          ",
"         456789         ",
"        0ab c+d         ",
"        efg  hij        ",
"       k5l   m+n        ",
"                        ",
"                        ",
"                        ",
"                        ",
"                        ",
"                        ",
"                        ",
"                        ",
"                        ",
"                        ",
"                        ",
"                        ",
"       .+@   #+$        ",
"        %&*  =-;        ",
"        *>, '+)         ",
"         !~{]^/         ",
"         (_:+<          ",
"          [+}|          ",
"          <+1           ",
"         /^2+3          ",
"         456789         ",
"        0ab c+d         ",
"        efg  hij        ",
"       k5l   m+n        ",
"                        ",
"                        ",
"                        ",
"                        ",
"                        "};
