/* XPM */
static char * maximizeA_xpm[] = {
"24 48 21 1",
" 	c #A0B4FA",
".	c #6D7BB9",
"+	c #000064",
"@	c #2D3478",
"#	c #9EB1F7",
"$	c #9DB1F6",
"%	c #292F75",
"&	c #545F9C",
"*	c #8293D4",
"=	c #8191D2",
"-	c #90A2E5",
";	c #46508E",
">	c #515B99",
",	c #4F5997",
"'	c #3F4888",
")	c #7887C7",
"!	c #92A5E8",
"~	c #92A4E7",
"{	c #7483C2",
"]	c #97AAEE",
"^	c #6C7AB8",
"                        ",
"                        ",
"                        ",
"                        ",
"                        ",
"                        ",
"                        ",
"          .+@#          ",
"         $%&+*          ",
"         =+-;>          ",
"         ,' )+!         ",
"        ~+{ ]+^         ",
"                        ",
"                        ",
"                        ",
"                        ",
"                        ",
"                        ",
"                        ",
"                        ",
"                        ",
"                        ",
"                        ",
"                        ",
"                        ",
"                        ",
"                        ",
"                        ",
"                        ",
"                        ",
"                        ",
"          .+@#          ",
"         $%&+*          ",
"         =+-;>          ",
"         ,' )+!         ",
"        ~+{ ]+^         ",
"                        ",
"                        ",
"                        ",
"                        ",
"                        ",
"                        ",
"                        ",
"                        ",
"                        ",
"                        ",
"                        ",
"                        "};
