/* XPM */
static char * minimizeI_xpm[] = {
"24 48 7 1",
" 	c #282C34",
".	c #454F69",
"+	c #7C8CC1",
"@	c #64729B",
"#	c #566286",
"$	c #A0B4FA",
"%	c #8090C8",
"                        ",
"                        ",
"                        ",
"                        ",
"                        ",
"                        ",
"                        ",
"                        ",
"                        ",
"                        ",
"                        ",
"                        ",
"                        ",
"                        ",
"                        ",
"                        ",
"                        ",
"                        ",
"                        ",
"       .+++++++@        ",
"       #$$$$$$$%        ",
"                        ",
"                        ",
"                        ",
"                        ",
"                        ",
"                        ",
"                        ",
"                        ",
"                        ",
"                        ",
"                        ",
"                        ",
"                        ",
"                        ",
"                        ",
"                        ",
"                        ",
"                        ",
"                        ",
"                        ",
"                        ",
"                        ",
"       .+++++++@        ",
"       #$$$$$$$%        ",
"                        ",
"                        ",
"                        "};
