/* XPM */
static char * start_xpm[] = {
"45 32 87 1",
" 	c #282C34",
".	c #606C95",
"+	c #95A9EA",
"@	c #9EB2F7",
"#	c #97ABED",
"$	c #7988BB",
"%	c #313444",
"&	c #323948",
"*	c #A0B4FA",
"=	c #566286",
"-	c #99ACF0",
";	c #7585B8",
">	c #333A4C",
",	c #5B688F",
"'	c #7B8BC1",
")	c #2E3641",
"!	c #2C3037",
"~	c #9DB0F5",
"{	c #6C7AA8",
"]	c #8090C8",
"^	c #8293CC",
"/	c #9CAEF3",
"(	c #8595D1",
"_	c #3A445A",
":	c #616D97",
"<	c #9FB2F7",
"[	c #66739F",
"}	c #9CAFF4",
"|	c #99ADEF",
"1	c #5D6991",
"2	c #707DAE",
"3	c #889AD5",
"4	c #586488",
"5	c #3A4057",
"6	c #5A668D",
"7	c #353C4E",
"8	c #47516D",
"9	c #8A9CD8",
"0	c #7D8DC4",
"a	c #4A5270",
"b	c #7786BA",
"c	c #8595CF",
"d	c #4D5776",
"e	c #7E8EC5",
"f	c #383A50",
"g	c #596389",
"h	c #2A2D3A",
"i	c #9BAFF2",
"j	c #9CB0F4",
"k	c #8B9DDA",
"l	c #434B64",
"m	c #4D5877",
"n	c #545E83",
"o	c #626E99",
"p	c #98ABED",
"q	c #464D68",
"r	c #8C9EDB",
"s	c #3D425B",
"t	c #414963",
"u	c #34374A",
"v	c #6976A2",
"w	c #9FB3F8",
"x	c #404963",
"y	c #96A9EB",
"z	c #3F445D",
"A	c #454D65",
"B	c #94A6E7",
"C	c #2C303C",
"D	c #374155",
"E	c #8C9EDC",
"F	c #8FA1E0",
"G	c #30333F",
"H	c #505879",
"I	c #46516B",
"J	c #484F6C",
"K	c #90A3E2",
"L	c #95A8EA",
"M	c #6A78A7",
"N	c #95A7E9",
"O	c #9EB3F8",
"P	c #515C7D",
"Q	c #98ACEE",
"R	c #91A3E3",
"S	c #6F7EAE",
"T	c #8FA2E1",
"U	c #7A8ABF",
"V	c #8394CD",
"                                             ",
"                                             ",
"                                             ",
"                                             ",
"                                             ",
"                                             ",
"                                             ",
"                                             ",
"                                             ",
"                                             ",
"                                             ",
"                                             ",
"                                             ",
"      .+@#$% &*=                  &*=        ",
"      -;>,') &*=                  &*=        ",
"     !~{    ]*****& ^*/(_ :*<[}|1]*****&     ",
"      2@34  )5*6&&  75890  a*b7c3)5*6&&      ",
"       d]~e  f*g   h$#ijk  a*6 lm f*g        ",
"         n*8 )*g   opq br  a*q    )*g        ",
"     s[tuvwx  y]zA%{BCDEF7GH*I)    y]zA%     ",
"     JK~wLM   1NO~P5EQRS*TU***V    1NO~P     ",
"                                             ",
"                                             ",
"                                             ",
"                                             ",
"                                             ",
"                                             ",
"                                             ",
"                                             ",
"                                             ",
"                                             ",
"                                             "};
